<svg width="60" height="60" viewBox="0 0 60 60" fill="none" xmlns="http://www.w3.org/2000/svg">
<path d="M45.125 5H15.5C9.70626 5 5 9.70625 5 15.5V45.125C5 50.9188 9.70626 55.625 15.5 55.625H45.125C50.9188 55.625 55.625 50.9188 55.625 45.125V15.5C55.625 9.70625 50.9188 5 45.125 5ZM37.4188 37.4375C36.725 38.3937 35.75 39.125 34.4938 39.6688C33.2375 40.2125 31.8313 40.475 30.2563 40.475C28.6813 40.475 27.3125 40.2125 26.1125 39.6875C24.9125 39.1625 23.9375 38.4125 23.2438 37.475C22.55 36.5375 22.1938 35.4312 22.175 34.2125H26.6188C26.6375 34.7375 26.8063 35.1875 27.1438 35.5812C27.4813 35.975 27.9125 36.2937 28.4563 36.5C29 36.7062 29.6 36.8375 30.275 36.8375C30.95 36.8375 31.6063 36.725 32.1688 36.4625C32.7313 36.2188 33.1625 35.8812 33.4625 35.4312C33.7625 34.9812 33.9125 34.4938 33.8938 33.9313C33.8938 33.3687 33.7438 32.8625 33.425 32.3937C33.1063 31.925 32.6375 31.5875 32.0375 31.3438C31.4375 31.1 30.7063 30.9688 29.9 30.9688H27.9313V27.725H29.9C30.5938 27.725 31.2125 27.6125 31.7375 27.3688C32.2813 27.125 32.6938 26.8062 32.9938 26.375C33.2938 25.9437 33.4438 25.4562 33.4438 24.8937C33.4438 24.3687 33.3125 23.9 33.05 23.4875C32.7875 23.075 32.4313 22.7563 31.9625 22.5125C31.4938 22.2875 30.95 22.175 30.3313 22.175C29.7125 22.175 29.1313 22.2875 28.625 22.5125C28.1188 22.7375 27.6875 23.0562 27.3688 23.45C27.05 23.8438 26.8813 24.3313 26.8625 24.8563H22.6438C22.6625 23.6562 23.0188 22.5875 23.6938 21.65C24.3688 20.7125 25.3063 19.9625 26.45 19.4563C27.6125 18.9312 28.9063 18.6875 30.3313 18.6875C31.7563 18.6875 33.0688 18.95 34.175 19.475C35.2813 20 36.1438 20.7125 36.7625 21.6313C37.3813 22.55 37.6813 23.5437 37.6625 24.65C37.6625 25.4375 37.5125 26.1312 37.175 26.7687C36.8375 27.4062 36.3688 27.9125 35.7688 28.325C35.15 28.7375 34.4563 29 33.65 29.15V29.3188C34.6813 29.45 35.5438 29.7313 36.275 30.1625C37.0063 30.5938 37.55 31.175 37.925 31.8687C38.3 32.5625 38.4688 33.3688 38.4688 34.25C38.4688 35.45 38.1313 36.5187 37.4375 37.4562L37.4188 37.4375Z" fill="#7D7D7D"/>
</svg>
