<svg width="60" height="60" viewBox="0 0 60 60" fill="none" xmlns="http://www.w3.org/2000/svg">
<path d="M45.125 5H15.5C9.70625 5 5 9.70625 5 15.5V45.125C5 50.9188 9.70625 55.625 15.5 55.625H45.125C50.9187 55.625 55.625 50.9188 55.625 45.125V15.5C55.625 9.70625 50.9187 5 45.125 5ZM38.0188 40.1938H22.8125V37.0062L30.425 29.9937C31.175 29.2625 31.7562 28.6625 32.1687 28.1938C32.5812 27.725 32.9187 27.2375 33.1437 26.75C33.3687 26.2812 33.4812 25.7563 33.4812 25.2125C33.4812 24.6125 33.3312 24.0688 33.05 23.6188C32.75 23.1688 32.3562 22.8125 31.85 22.55C31.3438 22.2875 30.7625 22.175 30.125 22.175C29.4875 22.175 28.8875 22.3062 28.3812 22.5688C27.875 22.8312 27.5 23.2062 27.2375 23.7125C26.975 24.2188 26.825 24.8 26.825 25.475H22.6437C22.6437 24.1063 22.9625 22.9062 23.5812 21.8938C24.2 20.8813 25.0812 20.075 26.225 19.5125C27.3687 18.95 28.6812 18.6687 30.1625 18.6687C31.6437 18.6687 32.975 18.9312 34.1187 19.4563C35.2625 19.9812 36.1437 20.7125 36.7812 21.6688C37.4 22.625 37.7187 23.6938 37.7187 24.9125C37.7187 25.7563 37.5687 26.5625 37.25 27.3312C36.9312 28.1 36.3687 28.9438 35.5812 29.9C34.775 30.8375 33.65 31.9813 32.2062 33.2938L28.9625 36.4062V36.5562H38.0375V40.175L38.0188 40.1938Z" fill="#7D7D7D"/>
</svg>
