<svg width="23" height="23" viewBox="0 0 23 23" fill="none" xmlns="http://www.w3.org/2000/svg">
<path d="M8.4 16.8952C13.0392 16.8952 16.8 13.1344 16.8 8.49521C16.8 3.85602 13.0392 0.0952148 8.4 0.0952148C3.76081 0.0952148 0 3.85602 0 8.49521C0 13.1344 3.76081 16.8952 8.4 16.8952Z" fill="white"/>
<path d="M15.7708 14.7649L14.8946 15.5613C14.6462 15.7871 14.6278 16.1716 14.8537 16.4201L20.1916 22.2926C20.4175 22.5411 20.802 22.5594 21.0505 22.3336L21.9266 21.5372C22.1751 21.3113 22.1935 20.9268 21.9676 20.6783L16.6296 14.8058C16.4038 14.5573 16.0193 14.539 15.7708 14.7649Z" fill="white"/>
</svg>
