<svg width="32" height="32" viewBox="0 0 32 32" fill="none" xmlns="http://www.w3.org/2000/svg">
<path d="M13.2 21.6C17.8392 21.6 21.6 17.8392 21.6 13.2C21.6 8.56086 17.8392 4.80005 13.2 4.80005C8.56086 4.80005 4.80005 8.56086 4.80005 13.2C4.80005 17.8392 8.56086 21.6 13.2 21.6Z" fill="white"/>
<path d="M20.5709 19.4699L19.6948 20.2663C19.4463 20.4922 19.428 20.8767 19.6538 21.1252L24.9918 26.9977C25.2176 27.2462 25.6022 27.2645 25.8506 27.0387L26.7268 26.2423C26.9753 26.0164 26.9936 25.6319 26.7677 25.3834L21.4298 19.5109C21.2039 19.2624 20.8194 19.2441 20.5709 19.4699Z" fill="white"/>
</svg>
