<svg width="32" height="32" viewBox="0 0 32 32" fill="none" xmlns="http://www.w3.org/2000/svg">
<path d="M24.912 16.7999H6.288C5.4662 16.7999 4.8 17.4661 4.8 18.2879V24.1119C4.8 24.9337 5.4662 25.5999 6.288 25.5999H24.912C25.7338 25.5999 26.4 24.9337 26.4 24.1119V18.2879C26.4 17.4661 25.7338 16.7999 24.912 16.7999Z" fill="white"/>
<path d="M25.48 10.3999H5.72C5.2119 10.3999 4.8 10.8118 4.8 11.3199V14.2799C4.8 14.788 5.2119 15.1999 5.72 15.1999H25.48C25.9881 15.1999 26.4 14.788 26.4 14.2799V11.3199C26.4 10.8118 25.9881 10.3999 25.48 10.3999Z" fill="white"/>
<path d="M25.64 5.59998H5.56C5.14027 5.59998 4.8 5.94024 4.8 6.35998V8.03998C4.8 8.45971 5.14027 8.79998 5.56 8.79998H25.64C26.0597 8.79998 26.4 8.45971 26.4 8.03998V6.35998C26.4 5.94024 26.0597 5.59998 25.64 5.59998Z" fill="white"/>
</svg>
