<svg width="40" height="40" viewBox="0 0 40 40" fill="none" xmlns="http://www.w3.org/2000/svg">
<rect width="40" height="40" rx="8" fill="#062045"/>
<g opacity="0.5">
<path d="M12.7099 30.2149C11.3951 24.9557 4.35548 23.7778 1 23.8463C9.95708 20.4771 16.6475 26.6882 18.8731 30.2149H12.7099Z" fill="url(#paint0_linear_1053_8281)"/>
<path d="M24.0089 30.1921H13.1207C18.4621 18.0302 29.9324 19.2354 34.9998 21.3583C26.5358 21.1117 21.7491 25.8437 20.4138 28.2404C22.3038 28.3226 23.598 29.5758 24.0089 30.1921Z" fill="white"/>
<path fill-rule="evenodd" clip-rule="evenodd" d="M27.2165 22.7113L22.8503 20.7794C27.4454 19.2927 32.1993 20.1855 34.9989 21.3583C31.9226 21.2687 29.3321 21.8367 27.2165 22.7113Z" fill="#21406D"/>
<path fill-rule="evenodd" clip-rule="evenodd" d="M7.57015 22.9541L5.86312 24.4523C4.05455 23.9716 2.26533 23.8202 1 23.8461C3.36095 22.958 5.56441 22.7355 7.57015 22.9541Z" fill="#21406D"/>
</g>
<g opacity="0.5">
<path d="M21.2709 15.2149C20.3422 11.5002 15.37 10.6683 13 10.7167C19.3265 8.33697 24.052 12.7239 25.624 15.2149H21.2709Z" fill="url(#paint1_linear_1053_8281)"/>
<path d="M29.2517 15.1988H21.5613C25.334 6.60872 33.4355 7.45997 37.0148 8.95936C31.0365 8.78524 27.6556 12.1274 26.7124 13.8203C28.0474 13.8784 28.9615 14.7635 29.2517 15.1988Z" fill="white"/>
<path fill-rule="evenodd" clip-rule="evenodd" d="M31.5179 9.91532L28.434 8.55078C31.6797 7.50034 35.0379 8.13092 37.0155 8.95936C34.8423 8.89606 33.0123 9.29743 31.5179 9.91532Z" fill="#21406D"/>
<path fill-rule="evenodd" clip-rule="evenodd" d="M17.6406 10.0866L16.435 11.1448C15.1577 10.8054 13.8941 10.6984 13.0005 10.7167C14.6679 10.0895 16.2241 9.93233 17.6406 10.0866Z" fill="#21406D"/>
</g>
<defs>
<linearGradient id="paint0_linear_1053_8281" x1="8.0876" y1="24.6224" x2="14.867" y2="30.272" gradientUnits="userSpaceOnUse">
<stop offset="0.348958" stop-color="#FEFFFF"/>
<stop offset="1" stop-color="#D7E0ED" stop-opacity="0.5776"/>
</linearGradient>
<linearGradient id="paint1_linear_1053_8281" x1="18.0061" y1="11.2649" x2="22.7945" y2="15.2552" gradientUnits="userSpaceOnUse">
<stop offset="0.348958" stop-color="#FEFFFF"/>
<stop offset="1" stop-color="#D7E0ED" stop-opacity="0.5776"/>
</linearGradient>
</defs>
</svg>
