<svg width="32" height="32" viewBox="0 0 32 32" fill="none" xmlns="http://www.w3.org/2000/svg">
<path d="M29.5941 23.7222L18.5334 5.40322C17.4002 3.53226 14.6092 3.53226 13.476 5.40322L2.40588 23.7222C1.26328 25.6204 2.66812 28 4.93458 28H27.0654C29.3319 28 30.7367 25.6204 29.5941 23.7222ZM17.8497 24.14C17.8497 24.5215 17.5313 24.8303 17.1379 24.8303H14.8714C14.4781 24.8303 14.1597 24.5215 14.1597 24.14V22.5597C14.1597 22.1782 14.4781 21.8694 14.8714 21.8694H17.1379C17.5313 21.8694 17.8497 22.1782 17.8497 22.5597V24.14ZM17.8497 19.7623C17.8497 20.1438 17.5313 20.4526 17.1379 20.4526H14.8714C14.4781 20.4526 14.1597 20.1438 14.1597 19.7623V11.8971C14.1597 11.5156 14.4781 11.2068 14.8714 11.2068H17.1379C17.5313 11.2068 17.8497 11.5156 17.8497 11.8971V19.7623Z" fill="#7D7D7D"/>
</svg>
